<?xml version="1.0" standalone="no"?>
<!DOCTYPE svg PUBLIC "-//W3C//DTD SVG 20010904//EN"
 "http://www.w3.org/TR/2001/REC-SVG-20010904/DTD/svg10.dtd">
<svg version="1.0" xmlns="http://www.w3.org/2000/svg"
 width="900.000000pt" height="900.000000pt" viewBox="0 0 900.000000 900.000000"
 preserveAspectRatio="xMidYMid meet">
<metadata>
Created by potrace 1.16, written by Peter Selinger 2001-2019
</metadata>
<g transform="translate(0.000000,900.000000) scale(0.100000,-0.100000)"
fill="#000000" stroke="none">
<path d="M0 8398 c0 -393 4 -598 10 -588 9 13 11 13 20 0 7 -11 5 -16 -10 -18
-20 -3 -20 -21 -20 -1533 0 -980 3 -1529 10 -1529 10 0 92 31 145 54 24 11
322 127 465 181 39 15 180 58 250 76 25 6 52 14 60 17 8 3 22 6 30 7 18 1 209
45 230 52 8 3 26 5 39 4 13 -2 33 2 45 7 33 16 203 45 227 39 11 -3 80 -1 152
4 73 5 157 11 187 13 41 3 59 9 72 26 10 12 16 26 13 30 -3 5 -1 11 4 14 5 3
7 15 4 26 -6 24 35 160 49 160 5 0 8 6 5 13 -2 6 5 30 16 51 12 22 22 49 24
60 6 43 9 52 28 75 22 25 27 31 64 61 14 12 18 20 11 20 -8 0 -1 10 16 23 33
25 84 75 84 83 0 8 28 34 37 34 4 0 26 25 48 56 22 31 53 70 68 88 15 17 40
51 55 76 15 25 33 53 42 64 66 82 157 180 281 306 160 161 176 187 164 268
-11 74 -94 206 -196 314 -66 68 -173 161 -212 182 -12 6 -48 28 -79 49 -43 28
-68 37 -99 37 -29 0 -50 7 -73 25 -17 14 -35 29 -41 33 -18 13 -60 30 -110 45
-27 8 -72 22 -100 30 -27 9 -75 18 -105 22 -30 3 -81 11 -113 16 -32 6 -72 12
-90 14 -18 2 -50 7 -72 10 -22 3 -62 7 -90 10 -90 8 -170 17 -190 22 -11 3
-32 4 -46 4 -17 -1 -26 4 -26 14 0 8 5 16 11 16 6 1 22 3 36 4 14 1 32 5 41 9
10 4 20 2 24 -4 5 -8 11 -8 21 1 10 8 18 8 27 1 18 -15 57 -3 57 17 0 13 2 13
9 2 7 -10 10 -10 13 -1 3 10 9 10 25 1 34 -18 44 -14 33 13 -6 16 -5 28 3 36
9 10 9 11 -1 5 -8 -4 -19 0 -27 11 -14 18 -14 18 -15 0 0 -14 -3 -16 -13 -7
-8 6 -17 8 -21 4 -3 -4 -5 4 -4 18 2 18 -1 23 -14 21 -11 -2 -18 3 -18 13 0 8
-4 15 -10 15 -5 0 -10 -5 -10 -11 0 -8 -5 -7 -16 2 -9 7 -35 12 -63 10 -33 -2
-51 2 -60 13 -7 9 -17 13 -23 10 -5 -3 -16 0 -25 8 -13 10 -17 10 -20 1 -3 -7
-9 -13 -14 -13 -6 0 -8 4 -5 8 3 5 -26 8 -64 8 -58 -1 -72 2 -84 19 -13 17
-15 17 -16 4 0 -21 -22 -30 -41 -18 -8 5 -10 9 -5 9 5 0 3 7 -4 15 -11 13 -14
13 -26 -2 -13 -17 -14 -17 -20 4 -5 18 -11 22 -29 17 -17 -4 -24 -1 -27 12 -3
16 -4 16 -19 1 -9 -9 -19 -13 -22 -10 -8 7 18 33 32 33 6 0 11 5 11 10 0 6
-15 10 -32 11 -18 0 -27 3 -20 6 6 2 10 9 6 14 -3 5 6 9 20 9 13 0 27 -6 29
-12 4 -10 6 -10 6 0 1 6 8 12 16 12 8 0 15 9 15 19 0 19 42 37 61 26 5 -4 11
0 14 7 3 8 17 15 31 16 14 1 23 -2 19 -8 -3 -6 1 -10 10 -10 11 0 15 5 11 16
-4 12 -1 14 13 9 11 -3 22 -1 26 5 3 6 12 7 18 3 7 -4 73 -8 148 -9 278 -4
664 -90 897 -200 40 -18 81 -34 91 -34 17 0 17 3 -4 45 -11 25 -46 72 -76 105
-85 94 -161 173 -194 200 -64 53 -170 135 -186 145 -10 6 -42 26 -71 46 -29
20 -69 44 -88 55 -19 10 -36 22 -38 27 -2 4 -9 7 -15 7 -7 0 -35 13 -64 28
-28 15 -80 42 -115 61 -34 18 -65 36 -68 40 -5 8 -20 16 -145 80 -39 20 -84
46 -102 59 -17 12 -36 22 -41 22 -6 0 -12 3 -14 8 -3 7 -16 15 -128 75 -106
57 -136 72 -173 86 -20 8 -37 18 -37 23 0 4 -7 8 -15 8 -12 0 -61 21 -117 51
-10 5 -25 9 -33 9 -8 0 -15 4 -15 8 0 4 -12 13 -27 19 -16 7 -48 24 -73 38
-44 25 -49 25 -247 25 l-203 0 0 -602z m121 -581 c-19 -19 -12 -24 30 -24 22
0 45 -5 52 -12 8 -8 5 -11 -11 -11 -22 0 -28 -10 -15 -23 3 -4 12 -2 20 4 18
16 66 -16 59 -39 -3 -9 -8 -30 -12 -47 -5 -25 -4 -28 7 -17 19 18 59 15 59 -4
0 -10 -6 -14 -14 -11 -8 3 -19 0 -25 -7 -11 -13 -4 -56 10 -56 14 0 11 28 -3
33 -7 2 -1 6 14 9 15 3 33 1 40 -4 10 -7 8 -8 -4 -4 -22 7 -24 -17 -3 -34 8
-7 12 -17 9 -22 -3 -5 -11 -2 -18 7 -13 18 -46 11 -46 -10 0 -7 -6 -16 -12
-18 -9 -4 -8 -6 3 -6 8 -1 20 4 27 11 7 7 12 9 12 4 0 -13 -28 -36 -44 -36
-19 0 -22 40 -5 57 8 8 8 13 0 17 -6 4 -11 -1 -12 -11 0 -10 -3 -13 -6 -5 -2
6 -9 12 -14 12 -6 0 -8 -3 -6 -7 8 -14 -12 -55 -24 -48 -8 5 -8 10 0 18 6 6
11 18 11 27 -1 12 -4 11 -15 -4 -11 -15 -15 -16 -16 -5 0 10 -2 11 -6 1 -9
-24 -33 8 -33 44 0 30 -3 34 -26 34 -22 0 -25 4 -21 21 7 27 -1 49 -20 49 -10
0 -12 6 -8 20 4 13 0 23 -14 32 -24 15 -28 33 -6 24 8 -3 15 -2 15 2 0 4 9 8
20 8 21 0 26 -11 10 -21 -17 -10 -11 -21 12 -22 18 -2 20 0 8 7 -13 9 -13 11
0 19 12 8 12 12 -3 29 -22 25 -22 27 9 29 19 1 23 -2 15 -10z"/>
<path d="M930 8965 c30 -19 62 -35 71 -35 10 0 21 -5 24 -10 4 -6 21 -17 38
-25 18 -8 59 -30 92 -49 33 -20 93 -52 133 -72 39 -20 72 -41 72 -46 0 -5 4
-7 8 -4 5 3 21 -4 38 -15 16 -10 37 -19 47 -19 9 0 17 -3 17 -8 0 -7 56 -34
113 -54 15 -6 27 -13 27 -18 0 -4 26 -15 58 -24 31 -10 67 -21 79 -26 16 -7
21 -6 17 3 -5 14 78 16 109 2 9 -4 26 -5 37 -2 11 3 23 1 26 -5 4 -5 13 -3 24
7 13 12 23 13 44 5 15 -5 43 -10 61 -10 22 0 38 -6 44 -17 7 -12 10 -14 11 -4
0 11 3 11 15 1 12 -10 15 -10 15 0 0 9 5 8 18 -3 10 -10 24 -17 30 -17 7 0 12
-5 12 -11 0 -8 5 -8 15 1 10 9 15 9 15 1 0 -6 13 -11 29 -11 16 0 36 -7 45
-15 8 -8 26 -15 40 -15 14 0 26 -4 26 -9 0 -5 15 -12 34 -15 19 -4 39 -13 46
-21 7 -8 26 -15 42 -15 18 0 27 -4 23 -10 -4 -7 3 -8 20 -4 17 4 30 2 35 -5 7
-12 43 -24 133 -42 27 -6 63 -19 80 -30 18 -10 44 -19 58 -19 14 0 41 -8 60
-17 19 -10 43 -19 54 -20 10 -2 22 -7 25 -11 3 -5 23 -16 45 -27 22 -10 64
-33 93 -51 29 -19 55 -34 58 -34 3 0 17 -11 32 -25 15 -14 32 -25 38 -25 6 0
23 -16 38 -35 15 -19 36 -37 47 -40 10 -4 19 -13 19 -21 0 -8 7 -14 16 -14 8
0 12 4 9 10 -3 5 5 20 19 33 17 16 22 27 16 38 -10 17 -2 59 11 59 4 0 -2 11
-15 25 -16 17 -22 33 -18 51 3 18 8 22 15 15 6 -6 19 -11 29 -11 10 0 18 -6
18 -14 0 -7 10 -24 23 -37 64 -65 110 -219 131 -434 33 -331 74 -572 100 -595
19 -15 66 4 67 27 0 10 3 13 5 6 7 -16 34 -5 34 13 0 8 12 24 26 37 14 12 36
45 49 72 29 65 27 114 -19 460 -8 61 -22 166 -31 235 -9 69 -18 136 -21 150
-3 14 -11 70 -19 125 -7 55 -18 136 -24 180 -7 44 -16 109 -21 145 -5 36 -16
112 -24 170 -9 58 -19 140 -22 183 l-7 77 -1416 0 -1416 -1 55 -34z"/>
<path d="M3925 8908 c7 -141 25 -362 36 -463 6 -49 12 -106 13 -125 6 -70 28
-217 61 -410 8 -47 20 -121 26 -165 6 -44 13 -83 16 -88 2 -4 6 -21 8 -37 20
-152 53 -279 81 -305 13 -12 24 -27 24 -34 0 -6 7 -11 15 -11 8 0 15 -3 15 -7
0 -9 48 -33 65 -33 6 0 17 -6 23 -12 7 -7 25 -13 41 -14 44 -2 57 37 75 236
25 265 15 458 -45 870 -27 190 -36 264 -54 425 -2 22 -4 91 -4 153 l-1 112
-200 0 -200 0 5 -92z"/>
<path d="M4506 8963 c4 -21 10 -40 13 -43 15 -11 32 -112 30 -172 -5 -181 14
-949 27 -1038 9 -62 11 -81 19 -153 3 -34 10 -89 15 -122 5 -33 12 -80 15
-105 3 -25 7 -52 10 -60 3 -8 7 -33 10 -54 6 -54 24 -70 69 -62 36 7 41 15 36
59 -1 10 6 29 15 43 9 14 14 33 11 42 -19 59 -21 204 -5 282 5 25 12 59 15 75
3 17 14 71 25 120 10 50 21 99 22 110 2 11 6 27 9 35 3 8 16 49 28 90 39 137
163 407 192 418 4 2 8 9 8 14 0 6 41 75 92 152 91 139 144 258 164 369 l6 37
-416 0 -417 0 7 -37z"/>
<path d="M5555 8950 c-9 -27 -21 -50 -25 -50 -5 0 -7 -7 -4 -15 4 -8 2 -15 -4
-15 -6 0 -18 -24 -26 -52 -9 -29 -21 -67 -27 -85 -5 -18 -12 -40 -14 -50 -12
-57 -35 -144 -49 -182 -9 -24 -18 -58 -20 -75 -4 -28 -19 -99 -31 -151 -3 -11
-13 -63 -24 -115 -11 -52 -27 -129 -35 -170 -27 -128 -44 -221 -61 -335 -9
-60 -20 -132 -25 -160 -12 -63 -38 -273 -43 -343 -6 -81 21 -102 222 -168 41
-13 79 -28 85 -32 6 -5 53 -23 104 -41 76 -27 97 -31 122 -23 28 10 89 68 90
85 0 4 9 17 20 29 10 11 28 40 39 62 10 23 26 48 35 55 9 8 16 18 16 24 0 6
17 33 38 61 21 28 42 62 49 76 6 14 28 48 49 77 35 46 80 114 139 207 10 17
41 61 67 99 26 37 48 71 48 75 0 5 8 16 18 25 10 9 40 49 67 89 127 188 450
545 614 679 30 24 61 51 70 60 28 28 244 211 342 291 52 42 105 86 119 97 l25
20 -987 1 -986 0 -17 -50z"/>
<path d="M7962 8993 c-17 -3 -21 -9 -17 -24 4 -12 2 -19 -6 -19 -7 0 -20 -7
-30 -16 -9 -8 -30 -16 -45 -18 -22 -2 -34 -13 -49 -41 -13 -26 -21 -33 -23
-21 -4 21 -18 21 -31 -1 -5 -10 -12 -17 -15 -15 -3 1 -14 2 -23 1 -11 0 -13
-3 -5 -6 6 -2 12 -21 13 -41 0 -20 3 -31 6 -24 7 19 23 14 17 -5 -4 -12 4 -8
20 10 15 16 23 34 19 40 -4 7 0 7 10 -1 20 -17 40 -6 34 19 -3 11 -1 17 4 13
5 -3 9 -18 9 -35 0 -22 -5 -29 -19 -29 -11 0 -23 -9 -26 -20 -3 -11 -13 -20
-22 -20 -8 0 -23 -10 -33 -22 l-18 -23 -21 23 c-11 13 -25 21 -30 17 -7 -4 -3
-14 9 -27 l20 -22 -38 -12 c-20 -7 -44 -21 -52 -31 -24 -30 -63 -53 -87 -53
-14 0 -21 -5 -17 -13 7 -19 -66 -53 -77 -35 -12 18 -11 38 2 38 5 0 7 5 4 10
-3 6 -11 10 -16 10 -6 0 -7 -4 -4 -10 3 -5 1 -10 -4 -10 -6 0 -11 -9 -11 -20
0 -11 5 -20 11 -20 6 0 9 -6 6 -12 -2 -7 -12 -12 -21 -10 -9 2 -16 -1 -15 -5
3 -19 -2 -25 -13 -15 -8 5 -21 6 -33 1 -19 -8 -19 -8 2 -15 13 -3 20 -10 17
-16 -3 -5 -15 -6 -26 -2 -11 3 -33 0 -49 -6 -37 -16 -46 -8 -25 22 13 19 16
20 16 5 0 -10 5 -15 10 -12 6 4 9 14 8 23 -2 11 3 16 15 14 9 -2 17 2 17 9 0
6 8 9 19 6 17 -4 18 -1 10 27 -12 42 -12 42 12 15 l20 -24 -5 27 c-5 22 -3 26
9 22 8 -4 15 -1 15 5 0 6 12 11 27 11 l26 0 -28 24 c-32 27 -45 26 -45 -6 0
-15 -5 -19 -20 -15 -11 3 -18 1 -15 -3 7 -12 -32 -23 -46 -14 -8 4 -9 3 -5 -4
4 -7 2 -12 -3 -12 -14 0 -14 -27 0 -32 7 -2 5 -9 -5 -18 -10 -7 -16 -9 -15 -4
3 19 -1 34 -11 34 -5 0 -7 -6 -4 -13 5 -13 -47 -37 -80 -37 -13 0 -16 -5 -12
-17 4 -9 1 -20 -6 -24 -9 -6 -9 -11 1 -23 7 -8 11 -21 8 -28 -4 -8 -8 -5 -12
10 -9 26 -25 29 -26 5 0 -11 -3 -13 -6 -5 -2 6 -12 12 -21 11 -11 0 -12 -2 -4
-6 19 -8 14 -23 -8 -23 -11 0 -20 -4 -20 -9 0 -6 10 -8 23 -5 12 2 37 2 56 -1
29 -6 32 -10 28 -31 -2 -13 0 -24 4 -24 5 0 9 -4 9 -9 0 -4 -12 -8 -27 -9 -55
0 -57 -1 -43 -17 11 -13 8 -15 -14 -15 -16 0 -25 -4 -21 -10 3 -5 -1 -10 -9
-10 -10 0 -13 6 -10 15 4 8 2 15 -3 15 -20 0 -32 -24 -27 -54 4 -21 3 -27 -4
-18 -7 11 -12 11 -24 -1 -11 -12 -17 -12 -31 -2 -21 15 -12 47 12 43 9 -2 15
3 14 10 -2 6 1 12 7 12 5 0 7 7 4 15 -4 8 -1 15 4 15 6 0 18 7 26 16 9 8 22
14 29 11 7 -2 0 -10 -15 -17 -15 -7 -25 -16 -23 -21 5 -7 28 2 64 25 11 7 11
10 0 18 -10 7 -5 8 14 3 21 -4 28 -2 25 7 -3 7 -25 13 -56 14 -28 1 -49 -2
-47 -6 3 -4 -3 -7 -13 -6 -9 0 -16 -4 -15 -10 1 -7 -11 -17 -27 -24 -20 -8
-27 -17 -23 -28 4 -10 3 -14 -1 -10 -11 10 -65 -55 -65 -78 1 -34 -8 -59 -20
-56 -13 3 -3 -49 11 -59 17 -11 -4 -39 -31 -40 -25 -1 -25 -1 -3 -7 24 -7 28
-29 5 -24 -7 2 -13 -5 -13 -15 -1 -18 -22 -53 -33 -53 -3 0 -8 8 -10 18 -2 9
-2 3 0 -14 3 -25 -2 -35 -22 -48 -14 -9 -25 -24 -25 -32 0 -12 -7 -15 -25 -12
-25 5 -34 -5 -15 -17 18 -11 10 -35 -14 -41 -15 -3 -29 -17 -35 -35 -5 -16
-17 -32 -25 -35 -9 -3 -14 -10 -11 -14 3 -4 -2 -10 -10 -14 -8 -3 -15 -12 -15
-20 0 -8 -6 -19 -14 -23 -7 -4 -17 -21 -23 -38 -5 -16 -17 -31 -26 -33 -23 -5
-69 -51 -87 -87 -8 -16 -36 -56 -62 -87 -26 -31 -48 -61 -48 -67 0 -6 -4 -11
-10 -11 -5 0 -10 -7 -10 -15 0 -8 -5 -15 -11 -15 -5 0 -8 -4 -5 -9 3 -5 -1
-12 -10 -15 -8 -3 -13 -10 -10 -15 3 -5 0 -11 -8 -14 -7 -3 -16 -19 -19 -36
-4 -17 -16 -39 -27 -48 -11 -10 -20 -23 -20 -30 0 -7 -4 -13 -10 -13 -5 0 -10
-9 -10 -20 0 -11 -4 -20 -9 -20 -5 0 -15 -16 -22 -35 -7 -19 -17 -35 -21 -35
-4 0 -8 -7 -8 -15 0 -8 -4 -15 -9 -15 -5 0 -11 -10 -14 -22 -3 -13 -15 -48
-27 -78 -39 -97 -44 -147 -20 -205 22 -56 55 -116 71 -131 11 -10 19 -21 19
-26 0 -12 38 -53 197 -216 79 -80 157 -161 174 -181 17 -20 51 -57 75 -83 43
-45 46 -47 92 -43 162 16 331 1 482 -41 66 -19 219 -82 241 -101 8 -7 18 -13
21 -13 26 0 253 -183 286 -231 19 -27 111 -86 148 -95 16 -4 40 -14 53 -23 14
-9 34 -14 44 -13 12 2 17 -1 13 -7 -4 -6 -3 -11 3 -11 5 0 13 5 16 10 10 16
25 12 19 -5 -5 -11 -2 -13 10 -9 9 3 16 10 16 14 0 16 40 18 50 2 9 -16 9 -16
10 1 0 9 5 17 10 17 6 0 10 -7 10 -16 0 -14 2 -14 15 0 22 21 58 31 63 17 5
-16 32 6 32 26 0 8 5 11 10 8 6 -4 8 -11 5 -16 -4 -5 0 -12 9 -15 18 -7 59 14
51 26 -3 6 1 7 9 4 9 -3 16 -1 16 5 0 8 6 7 21 -1 17 -10 23 -10 26 0 3 6 20
12 38 12 19 0 37 5 40 10 3 6 15 10 26 10 10 0 19 5 19 10 0 14 28 12 33 -2 3
-10 7 -10 19 0 9 7 22 10 31 6 8 -3 24 -1 35 5 14 8 24 6 38 -4 11 -8 29 -15
42 -15 13 0 33 -5 44 -11 16 -9 18 -13 7 -20 -7 -4 -10 -11 -6 -16 4 -4 17 -2
28 6 19 11 20 10 14 -11 -4 -13 -13 -26 -19 -30 -8 -6 -8 -10 0 -15 6 -5 13
-18 16 -31 5 -18 1 -23 -20 -29 -25 -6 -25 -6 -4 -14 12 -5 22 -16 22 -24 0
-9 4 -14 9 -11 5 3 12 -1 15 -10 4 -9 9 -14 12 -11 3 3 17 -6 30 -20 15 -16
30 -24 43 -20 13 3 18 1 14 -8 -2 -8 10 -20 31 -30 35 -17 48 -35 24 -35 -6 0
-9 -2 -6 -5 3 -3 13 -3 22 1 15 6 16 151 16 1885 l0 1879 -507 -1 c-280 -1
-518 -4 -531 -6z"/>
<path d="M5158 8330 c-15 -22 -30 -50 -34 -62 -3 -13 -17 -44 -29 -70 -12 -25
-25 -58 -29 -72 -3 -14 -11 -26 -16 -26 -6 0 -10 -11 -10 -25 0 -25 -2 -31
-33 -93 -9 -19 -17 -44 -17 -57 0 -13 -4 -27 -10 -30 -5 -3 -10 -21 -10 -39 0
-18 -3 -36 -7 -40 -8 -7 -7 -4 -28 -106 -22 -110 -27 -140 -30 -191 -1 -25 -5
-51 -8 -57 -4 -5 -4 -17 -1 -26 3 -9 1 -16 -4 -16 -6 0 -11 -8 -10 -17 0 -10
-5 -33 -10 -51 -8 -22 -8 -30 0 -26 9 6 6 -11 -9 -53 -3 -7 0 -13 7 -13 7 0
10 -7 6 -16 -3 -8 -2 -12 3 -9 5 3 16 -4 25 -16 10 -14 22 -20 35 -16 11 3 22
0 24 -7 6 -19 45 66 63 140 9 38 23 90 30 116 8 25 18 75 23 110 5 34 19 124
30 198 35 223 42 278 47 338 3 31 9 73 14 92 6 19 10 53 10 76 0 22 3 44 8 48
9 9 10 56 2 56 -4 0 -18 -18 -32 -40z"/>
<path d="M2080 8285 c-12 -23 -11 -29 10 -58 13 -17 35 -41 48 -52 30 -25 202
-198 202 -204 0 -7 84 -81 93 -81 5 0 5 -5 2 -11 -4 -6 0 -9 10 -7 10 2 22 -6
29 -17 24 -42 101 -150 129 -179 16 -17 43 -53 61 -81 45 -69 137 -189 147
-193 5 -2 9 -10 9 -17 0 -8 23 -42 50 -76 28 -34 50 -70 50 -79 0 -10 7 -24
16 -31 20 -17 68 -90 69 -105 0 -11 30 -44 39 -44 3 0 14 -8 24 -17 10 -10 31
-27 46 -38 16 -11 34 -26 41 -32 8 -7 23 -13 34 -13 11 0 22 -4 25 -9 3 -5 41
-12 84 -16 119 -10 190 16 193 71 2 40 -10 146 -22 186 -5 18 -9 54 -9 80 0
26 -4 49 -9 53 -5 3 -13 31 -16 63 -4 31 -20 100 -36 153 -16 53 -29 104 -29
113 0 10 -4 15 -9 12 -5 -3 -11 8 -15 24 -5 28 -33 75 -63 108 -7 7 -13 18
-13 23 0 13 -162 174 -192 190 -31 17 -135 68 -163 80 -66 29 -188 61 -239 63
-38 1 -62 7 -70 17 -14 19 -94 51 -107 43 -5 -3 -16 0 -24 6 -8 7 -30 13 -49
15 -20 2 -40 6 -45 10 -6 3 -23 8 -38 10 -16 2 -59 13 -98 24 -38 12 -85 21
-102 21 -18 0 -33 5 -33 10 0 19 -17 10 -30 -15z"/>
<path d="M4565 6909 c-46 -10 -191 -29 -250 -34 -21 -1 -41 -8 -43 -14 -2 -6
-8 -8 -13 -5 -17 10 -56 -24 -78 -69 -12 -25 -35 -59 -51 -76 -29 -29 -48 -41
-36 -22 3 5 -1 14 -9 21 -8 7 -15 21 -15 31 0 10 -5 21 -10 24 -6 4 -8 11 -5
16 4 5 -11 9 -33 9 -22 0 -55 2 -73 5 -19 3 -28 3 -21 -1 25 -12 11 -23 -25
-19 -35 4 -40 2 -62 -32 -17 -27 -19 -34 -7 -30 13 5 16 0 16 -25 0 -24 10
-41 47 -75 26 -23 51 -43 56 -43 15 0 39 -29 32 -40 -3 -5 -1 -18 5 -30 5 -11
14 -28 18 -37 5 -10 7 -47 5 -83 -2 -36 -4 -76 -5 -90 0 -14 -3 -19 -5 -12 -4
10 -8 10 -19 1 -19 -16 -18 -29 3 -29 14 0 13 -4 -6 -21 -18 -17 -20 -23 -9
-30 7 -5 9 -9 3 -9 -5 0 -1 -7 9 -15 15 -12 17 -17 7 -29 -15 -17 -6 -56 17
-72 9 -7 13 -21 10 -37 -3 -15 -2 -27 2 -27 4 0 5 -11 3 -24 -6 -31 -33 -44
-33 -16 0 22 -15 27 -25 9 -5 -6 -13 -3 -22 10 -14 21 -43 29 -43 12 0 -5 -9
-7 -20 -4 -10 3 -18 10 -17 17 1 6 -8 10 -22 8 -15 -1 -29 5 -38 17 -17 25
-50 15 -91 -27 l-28 -28 -17 22 c-21 28 -21 34 -2 34 8 0 15 7 15 16 0 8 -4
13 -9 9 -5 -3 -12 -1 -16 5 -10 16 -28 12 -21 -5 9 -24 -18 -18 -44 10 -13 14
-18 25 -11 25 7 0 11 6 8 13 -2 6 -11 11 -21 9 -15 -3 -21 14 -18 57 0 8 -7
20 -16 27 -16 11 -19 80 -6 129 4 16 3 17 -5 5 -9 -13 -11 -13 -11 2 0 9 5 18
12 20 7 3 12 21 11 41 -1 20 3 37 7 37 4 0 8 10 8 23 0 12 2 37 4 55 3 18 2
35 -3 38 -4 2 -6 11 -2 19 3 10 -1 15 -13 16 -18 0 -17 1 1 9 11 5 14 9 8 9
-8 1 -13 15 -13 36 0 19 -4 35 -10 35 -5 0 -10 -4 -10 -9 0 -4 -14 -7 -31 -5
-18 2 -37 -2 -46 -11 -8 -8 -21 -15 -29 -15 -22 0 -81 -69 -88 -102 -3 -16
-10 -27 -16 -23 -5 3 -10 0 -10 -7 0 -8 -16 -14 -48 -16 -34 -2 -43 0 -32 8
11 7 11 10 2 10 -7 0 -23 -9 -35 -20 -12 -11 -27 -18 -33 -16 -7 3 -15 -2 -18
-10 -3 -8 -19 -14 -36 -14 -18 0 -33 -6 -36 -15 -4 -8 -10 -15 -15 -15 -8 0
-67 -37 -106 -68 -106 -82 -147 -116 -187 -154 -21 -21 -42 -38 -47 -38 -5 0
-6 -7 -2 -16 5 -13 1 -15 -18 -9 -15 4 -19 3 -11 -2 9 -7 4 -15 -18 -31 -35
-26 -59 -30 -40 -7 18 22 -5 20 -28 -2 -10 -10 -24 -19 -32 -21 -17 -4 -84
-73 -93 -95 -3 -9 -10 -17 -14 -17 -4 0 -9 -12 -9 -26 -2 -21 2 -25 17 -21 11
3 19 0 19 -6 0 -7 11 1 25 16 23 24 45 35 45 22 0 -3 -11 -22 -24 -43 -12 -20
-23 -40 -22 -43 1 -3 -5 -13 -12 -22 -8 -9 -11 -21 -7 -27 3 -5 2 -10 -3 -10
-11 0 -43 -67 -49 -102 -2 -16 0 -28 6 -28 6 0 11 -14 11 -30 0 -22 6 -33 23
-40 17 -7 18 -9 5 -9 -22 -1 -24 -21 -2 -21 12 0 14 -9 10 -47 -9 -73 -15 -96
-27 -104 -6 -3 -8 -16 -5 -27 5 -15 1 -24 -12 -31 -12 -6 -19 -21 -19 -37 -1
-14 -6 -30 -13 -34 -7 -5 -11 -19 -8 -34 3 -14 0 -30 -7 -36 -7 -6 -11 -19 -8
-29 2 -10 -9 -41 -26 -68 -17 -28 -31 -57 -31 -65 0 -9 -9 -18 -20 -21 -11 -3
-24 -17 -30 -31 -5 -15 -17 -29 -25 -33 -9 -3 -14 -11 -11 -19 3 -7 -2 -18
-10 -24 -8 -7 -14 -21 -14 -31 0 -11 -4 -19 -10 -19 -5 0 -10 -7 -10 -15 0
-14 -25 -61 -40 -75 -5 -5 -8 -16 -13 -49 -2 -11 -8 -26 -15 -34 -10 -12 -9
-16 3 -21 9 -3 14 -10 11 -15 -10 -15 5 -41 23 -40 11 0 12 2 3 6 -19 8 5 33
33 33 12 0 24 3 28 6 3 3 27 7 54 8 26 2 40 1 31 -1 -18 -5 -25 -23 -9 -23 22
0 40 13 34 24 -3 6 3 3 14 -6 21 -20 38 -24 28 -8 -3 6 -2 10 4 10 13 0 2 -62
-12 -71 -5 -4 -4 -9 3 -14 6 -4 9 -13 7 -19 -3 -7 -1 -19 3 -27 5 -8 4 -19 -2
-26 -8 -10 -3 -13 23 -14 21 -1 27 -3 14 -6 -24 -6 -44 -23 -27 -23 7 0 12 -6
12 -14 0 -8 17 -17 43 -21 26 -5 35 -10 23 -12 -17 -5 -16 -7 9 -29 16 -13 32
-24 38 -24 5 0 4 -6 -2 -14 -9 -10 -9 -16 -1 -21 6 -4 8 -15 5 -25 -3 -10 -1
-21 4 -25 6 -3 9 -26 6 -50 -2 -26 0 -45 5 -45 6 0 10 -9 10 -21 0 -15 5 -19
15 -15 8 3 15 0 15 -7 0 -8 4 -6 10 3 8 12 10 11 10 -6 0 -23 26 -51 37 -41 3
4 17 -3 31 -13 13 -11 34 -20 44 -20 11 0 22 -9 25 -20 3 -11 14 -20 24 -20
11 0 19 -4 19 -9 0 -5 25 -21 56 -36 51 -25 60 -26 96 -15 22 6 51 22 65 36
13 13 26 24 28 24 10 0 85 78 85 87 0 6 9 18 20 28 11 10 20 23 20 30 0 13
100 119 147 155 17 13 29 28 27 32 -3 4 5 12 16 18 11 6 20 15 20 21 0 14 26
39 39 39 6 0 11 7 11 15 0 8 5 15 10 15 6 0 10 6 10 14 0 8 6 16 12 18 7 3 13
13 13 23 0 9 14 25 31 34 36 20 64 45 64 59 0 6 7 13 16 16 9 4 14 13 10 21
-7 18 5 19 23 3 11 -11 13 -10 9 2 -3 9 1 25 9 35 13 17 15 17 10 3 -8 -22 6
-23 27 -3 8 8 24 15 35 15 24 0 36 17 23 33 -8 9 -4 12 13 12 15 0 21 -3 15
-9 -15 -15 -12 -26 6 -26 9 0 23 8 30 18 12 15 12 15 7 -6 -4 -17 -2 -23 8
-22 34 5 59 -1 59 -14 0 -12 19 -22 73 -40 9 -3 17 -15 17 -27 0 -15 4 -19 16
-15 10 4 15 0 13 -12 -3 -36 1 -52 16 -52 9 0 12 -6 9 -15 -4 -8 -1 -15 7 -15
7 0 10 -3 6 -6 -3 -4 3 -24 14 -46 11 -21 19 -49 18 -61 -1 -12 -1 -33 0 -47
1 -20 3 -22 12 -10 8 12 9 10 4 -7 -3 -12 -2 -38 4 -58 5 -19 6 -35 1 -35 -4
0 -11 -12 -15 -27 -3 -15 -9 -22 -13 -17 -10 14 -82 17 -82 4 0 -14 -25 -40
-39 -40 -5 0 -29 -13 -53 -29 -24 -15 -60 -34 -80 -42 -21 -7 -40 -21 -44 -31
-3 -10 -14 -18 -24 -18 -10 0 -25 -7 -34 -15 -8 -8 -19 -15 -25 -15 -6 0 -11
-5 -11 -10 0 -6 -14 -25 -31 -43 -17 -17 -43 -48 -58 -67 -14 -19 -29 -37 -32
-40 -3 -3 -28 -39 -56 -80 -28 -41 -60 -84 -72 -94 -11 -11 -21 -24 -21 -31 0
-6 -11 -22 -25 -35 -14 -13 -25 -28 -25 -35 0 -10 -24 -40 -86 -109 -14 -15
-23 -35 -20 -43 3 -8 1 -11 -4 -8 -6 3 -10 -3 -10 -14 0 -12 -5 -21 -11 -21
-5 0 -7 -5 -4 -11 11 -17 -5 -79 -19 -79 -8 0 -19 -7 -26 -15 -15 -18 -34 -20
-24 -2 4 6 -7 -1 -25 -18 -25 -23 -34 -27 -40 -16 -6 9 -11 10 -15 2 -4 -6 -2
-11 4 -11 6 0 8 -5 5 -11 -4 -6 -13 -8 -20 -6 -14 6 -75 -45 -75 -62 0 -6 -5
-10 -12 -8 -7 1 -15 -17 -20 -43 -4 -25 -14 -49 -21 -55 -24 -19 -65 -80 -72
-107 -4 -16 -11 -26 -15 -23 -4 3 -11 -12 -15 -33 -4 -20 -11 -43 -17 -49 -6
-7 -7 -13 -4 -13 18 0 -52 -52 -76 -57 -15 -3 -25 -9 -22 -14 3 -5 -2 -12 -11
-15 -9 -4 -14 -12 -11 -19 2 -7 2 -16 -2 -19 -3 -4 -7 -47 -9 -96 -1 -49 -8
-100 -15 -112 -7 -13 -12 -27 -13 -31 0 -5 -8 -14 -17 -21 -10 -7 -15 -16 -11
-20 4 -4 -1 -4 -10 0 -13 5 -25 -1 -39 -19 -19 -24 -22 -24 -37 -9 -15 14 -16
14 -19 -5 -3 -23 -23 -43 -44 -47 -18 -3 -58 -29 -58 -38 0 -4 7 -4 17 -1 11
4 14 3 9 -5 -4 -7 -17 -10 -32 -6 -14 4 -24 2 -24 -5 0 -6 5 -11 12 -11 6 0 9
-3 6 -6 -4 -3 -16 0 -28 6 -20 11 -21 10 -15 -12 5 -19 4 -20 -5 -8 -9 12 -13
12 -17 2 -5 -14 -12 -20 -56 -53 -16 -12 -26 -27 -23 -35 3 -7 1 -16 -4 -19
-14 -9 -12 -79 3 -95 10 -12 9 -12 -5 -1 -9 7 -22 10 -28 6 -17 -10 -11 -33
10 -40 11 -4 18 -11 15 -16 -4 -5 -13 -2 -21 6 -9 8 -20 15 -25 15 -13 0 -11
-28 3 -32 9 -3 9 -6 0 -12 -7 -4 -12 -2 -12 3 0 15 -27 14 -33 -1 -2 -7 -8
-10 -12 -6 -5 5 -1 16 8 26 20 21 22 32 6 32 -5 0 -7 -5 -4 -10 3 -6 -1 -10
-9 -10 -9 0 -16 -8 -16 -17 -1 -17 -1 -17 -11 0 -13 23 -44 23 -35 0 6 -15 5
-15 -13 1 -14 13 -28 16 -46 12 -20 -5 -25 -3 -25 12 0 10 -5 23 -11 29 -5 5
-11 24 -11 42 -1 17 -6 31 -13 31 -15 0 -25 33 -15 50 5 8 9 5 13 -9 3 -12 10
-21 17 -21 6 0 9 4 6 8 -2 4 -6 39 -7 77 -2 39 -8 74 -14 78 -6 5 -1 7 13 4
20 -5 27 3 23 26 0 4 4 7 10 7 6 0 9 7 5 15 -3 8 -1 15 4 15 6 0 10 -4 10 -10
0 -5 4 -10 9 -10 5 0 8 8 7 17 0 9 10 22 22 29 15 7 20 14 13 18 -16 10 -13
26 4 26 8 0 15 5 15 10 0 6 -4 10 -10 10 -5 0 -10 5 -10 10 0 6 9 10 20 10 11
0 20 5 20 10 0 6 -6 10 -12 10 -9 0 -8 3 2 10 9 6 14 21 12 42 -3 28 2 37 23
48 15 8 38 36 51 62 13 26 28 48 32 48 5 0 14 16 22 35 8 19 17 35 21 35 4 0
9 8 12 18 9 29 47 87 80 123 9 10 17 22 17 25 0 3 14 28 32 55 22 35 38 49 54
49 55 0 138 135 137 223 -1 34 3 47 13 47 8 0 14 5 14 10 0 6 11 20 25 32 14
12 25 30 25 39 0 10 5 21 10 24 6 3 10 19 10 35 0 24 3 28 18 23 13 -5 14 -3
6 6 -13 14 -7 54 7 46 10 -7 24 60 15 73 -3 6 1 13 10 16 9 4 14 13 10 21 -7
18 10 20 17 3 4 -8 8 -4 12 9 4 13 11 20 16 17 5 -3 9 4 9 16 0 12 5 18 10 15
6 -3 10 1 10 10 0 9 5 13 10 10 5 -3 10 3 10 13 0 11 7 25 15 32 8 7 12 16 9
21 -3 5 -1 9 3 9 13 0 33 59 22 66 -20 12 -48 12 -60 -2 -6 -8 -19 -14 -28
-14 -13 0 -13 2 -2 9 10 7 7 9 -12 8 -14 -1 -25 -6 -24 -12 1 -5 -6 -9 -16 -7
-16 3 -16 0 -5 -17 11 -18 10 -23 -10 -37 -13 -9 -21 -22 -18 -29 6 -16 -45
-72 -69 -76 -10 -2 -20 -10 -23 -18 -3 -9 0 -11 9 -5 12 7 12 5 0 -9 -7 -9
-24 -17 -38 -17 -15 0 -27 -8 -33 -22 -7 -18 -9 -19 -9 -5 -1 22 -27 22 -39 1
-6 -11 -18 -15 -35 -12 -19 4 -24 1 -20 -10 3 -8 0 -18 -7 -22 -9 -6 -13 -25
-11 -54 1 -27 -4 -55 -12 -66 -14 -19 -14 -19 -35 1 -18 16 -26 18 -42 9 -16
-9 -22 -8 -27 5 -4 12 -8 13 -13 5 -8 -13 -6 -64 6 -157 9 -67 0 -95 -32 -110
-21 -10 -32 -10 -53 2 -36 18 -68 50 -76 75 -3 11 -11 20 -17 20 -6 0 -9 3 -6
6 9 9 -15 48 -56 95 -36 39 -42 42 -96 43 -31 1 -68 -4 -81 -11 -13 -6 -62
-28 -109 -49 -47 -21 -92 -43 -100 -50 -8 -6 -25 -15 -37 -18 -13 -4 -29 -13
-35 -19 -7 -7 -38 -28 -68 -47 -30 -18 -62 -41 -71 -49 -9 -9 -26 -23 -39 -31
-12 -8 -28 -21 -36 -27 -7 -7 -17 -13 -23 -13 -6 0 -15 -9 -21 -21 -7 -11 -14
-18 -17 -15 -6 6 -74 -42 -86 -61 -4 -7 -12 -13 -18 -13 -9 0 -67 -37 -79 -51
-3 -3 -36 -29 -73 -58 -38 -29 -86 -69 -106 -89 -21 -21 -51 -46 -66 -57 -16
-11 -38 -31 -49 -44 -12 -13 -36 -38 -55 -55 -19 -17 -74 -70 -122 -118 -48
-49 -93 -88 -99 -88 -7 0 -10 -7 -6 -17 4 -10 4 -14 0 -10 -8 8 -64 -30 -64
-44 0 -5 -32 -41 -72 -80 -59 -57 -70 -72 -58 -81 13 -8 12 -9 -2 -5 -11 4
-45 -23 -110 -89 -51 -51 -99 -100 -106 -106 -83 -80 -117 -118 -133 -143 -18
-29 -19 -68 -19 -967 l0 -938 4500 0 4500 0 0 2399 c0 1320 -3 2406 -6 2415
-3 9 -10 16 -16 16 -5 0 -7 -4 -4 -9 3 -5 -6 -8 -19 -8 -14 0 -25 3 -25 7 0 8
-69 5 -77 -4 -4 -3 -12 -1 -18 4 -17 14 -74 19 -81 8 -4 -6 0 -14 7 -19 7 -4
10 -11 5 -16 -4 -4 -12 -1 -16 7 -27 44 -29 46 -40 30 -7 -11 -5 -16 5 -18 8
-2 15 -7 15 -12 0 -11 -43 -21 -53 -11 -10 10 -57 2 -57 -11 0 -5 6 -8 13 -7
6 1 21 1 32 0 18 -1 19 -2 2 -12 -9 -5 -23 -7 -30 -3 -8 5 -7 2 2 -9 12 -15
11 -17 -3 -17 -9 0 -16 7 -16 16 0 8 -4 13 -9 9 -5 -3 -12 3 -14 12 -3 10 -5
-2 -6 -27 -1 -40 -3 -43 -15 -27 -19 25 -23 21 -19 -15 2 -18 0 -27 -3 -20 -3
6 -11 9 -17 5 -25 -15 -44 -10 -40 11 2 12 1 15 -3 8 -3 -6 -11 -9 -16 -6 -7
4 -8 2 -4 -4 11 -18 -29 -51 -53 -45 -15 4 -21 1 -21 -12 0 -14 -3 -15 -15 -5
-13 10 -15 9 -15 -9 0 -21 -1 -22 -17 -5 -17 16 -18 16 -23 -2 -4 -17 -13 -20
-53 -19 -33 1 -51 -3 -56 -13 -6 -10 -10 -11 -15 -3 -4 6 -22 11 -39 12 -31 1
-31 1 -7 9 l25 8 -27 1 c-18 1 -28 6 -28 17 0 10 -6 13 -19 9 -12 -3 -21 0
-25 10 -3 8 -15 15 -26 15 -11 0 -20 4 -20 9 0 5 -9 12 -19 16 -10 3 -22 18
-26 32 -3 15 -17 37 -31 50 -13 12 -24 30 -24 39 0 9 -16 31 -35 50 -19 18
-35 37 -35 42 0 6 -13 16 -30 24 -16 7 -30 20 -30 29 0 9 -9 24 -20 34 -11 10
-20 24 -20 32 0 7 -16 31 -36 52 -25 29 -48 43 -82 51 -74 18 -155 29 -177 25
-11 -2 -59 -7 -107 -10 -48 -3 -103 -12 -122 -20 -20 -8 -44 -15 -54 -15 -21
0 -56 -33 -45 -43 3 -4 1 -7 -5 -7 -7 0 -12 -6 -12 -14 0 -8 -6 -16 -12 -18
-10 -4 -15 -56 -19 -199 -4 -166 -8 -203 -27 -254 -12 -32 -30 -68 -40 -80 -9
-11 -26 -36 -37 -55 -10 -19 -24 -40 -31 -47 -27 -28 -142 -28 -131 0 4 11
-16 39 -24 33 -2 -1 -12 6 -21 16 -15 15 -15 18 -3 18 8 0 15 5 15 10 0 6 -7
10 -15 10 -18 0 -19 12 -3 28 9 9 8 12 -5 12 -22 0 -23 36 -1 44 12 5 13 10 5
19 -7 9 -7 25 -1 48 12 45 11 50 -38 150 -23 47 -42 91 -42 97 0 7 -7 12 -16
12 -13 0 -14 3 -5 13 8 10 6 28 -9 68 -11 30 -19 50 -20 44 0 -5 -10 6 -21 24
-17 28 -19 41 -12 65 13 44 4 300 -11 325 -4 6 -10 32 -12 57 -2 25 -10 64
-18 87 -8 23 -17 65 -21 92 -6 47 -12 70 -31 120 -4 11 -8 26 -10 32 -9 43
-129 129 -190 137 -23 2 -77 18 -120 35 -44 17 -84 31 -91 31 -15 0 -77 33
-81 43 -2 4 -10 7 -18 7 -8 0 -24 9 -36 20 -12 11 -29 20 -38 20 -8 0 -26 7
-38 16 -12 8 -22 12 -22 8 0 -4 -9 1 -20 11 -11 10 -20 15 -20 10 0 -4 -7 -2
-15 5 -8 7 -15 9 -15 4 0 -5 -11 -9 -25 -9 -14 0 -25 5 -25 10 0 13 -69 40
-77 31 -4 -3 -1 -6 5 -6 7 0 12 -5 12 -11 0 -6 -7 -9 -15 -5 -9 3 -15 0 -15
-9 0 -8 -9 -20 -21 -29 -20 -13 -20 -14 -2 -19 14 -4 13 -5 -5 -6 -13 0 -34
10 -46 23 -13 12 -31 26 -41 29 -9 4 -13 11 -10 17 4 6 -4 9 -17 7 -16 -1 -23
3 -23 15 0 37 -104 70 -105 34 -1 -6 -10 0 -20 13 -20 23 -20 23 -20 2 0 -13
-6 -21 -16 -21 -19 0 -75 45 -67 54 4 3 -1 6 -9 6 -9 0 -19 -6 -22 -12 -5 -10
-7 -10 -12 0 -3 6 -14 12 -25 12 -10 0 -18 6 -16 13 1 8 -11 11 -40 9 -34 -2
-43 1 -43 13 0 10 5 14 13 10 6 -4 3 1 -8 10 -11 9 -27 14 -35 12 -16 -4 -40
15 -40 33 0 13 1 13 -48 -10 -23 -11 -42 -26 -42 -33 0 -7 -12 -21 -26 -32
-15 -11 -30 -28 -34 -39 -7 -20 -7 -20 -19 3 -7 13 -9 27 -4 34 5 7 8 59 7
117 -2 81 -6 107 -18 116 -9 6 -13 14 -9 17 3 4 -2 9 -11 13 -9 3 -14 9 -12
13 3 4 -1 36 -8 72 -8 35 -11 68 -8 73 3 5 0 6 -5 3 -6 -4 -13 9 -17 31 -8 51
-78 127 -135 147 -24 8 -44 14 -45 14 0 -1 -19 -5 -41 -10z m1484 -2471 c11 3
12 0 6 -14 -4 -11 -10 -29 -12 -41 -6 -25 -19 -30 -26 -10 -2 6 -2 2 -1 -10 2
-12 0 -25 -6 -28 -5 -3 -10 3 -10 14 0 11 -4 23 -10 26 -5 3 -10 -1 -10 -10 0
-26 20 -57 34 -52 16 6 50 -19 42 -32 -4 -5 -1 -13 5 -17 6 -3 15 0 20 7 4 8
4 16 -3 20 -7 4 -7 9 1 13 6 4 11 2 11 -4 0 -7 8 -9 19 -5 18 5 19 2 14 -31
-4 -27 -3 -35 5 -30 7 4 12 15 12 24 1 15 2 15 11 -1 6 -9 7 -26 4 -37 -9 -27
4 -25 14 2 l8 22 5 -22 c4 -12 2 -20 -3 -16 -13 8 -11 -10 3 -24 9 -9 9 -12
-1 -12 -10 0 -11 -4 -3 -13 14 -16 7 -158 -8 -167 -6 -4 -8 -15 -4 -25 6 -14
4 -16 -7 -11 -8 4 -6 1 5 -8 10 -8 15 -19 12 -25 -3 -5 7 -12 24 -16 16 -4 30
-13 30 -20 0 -8 8 -22 18 -32 19 -19 72 -99 72 -108 0 -3 5 -11 10 -18 6 -7
26 -37 46 -67 20 -30 54 -72 75 -92 21 -21 39 -42 39 -47 0 -16 60 -111 70
-111 5 0 12 -10 16 -22 7 -22 73 -128 85 -138 9 -7 43 -64 80 -135 17 -33 38
-67 45 -76 8 -9 16 -26 19 -38 2 -12 13 -34 24 -49 11 -16 23 -40 26 -55 4
-15 11 -30 16 -33 5 -3 9 -16 9 -29 0 -13 4 -27 10 -30 5 -3 20 -28 32 -55 13
-28 26 -50 30 -50 5 0 8 -13 8 -30 0 -16 5 -30 11 -30 6 0 9 -6 6 -14 -3 -8 0
-17 7 -19 7 -3 16 -24 20 -46 3 -23 11 -41 16 -41 6 0 10 -7 10 -15 0 -8 5
-15 11 -15 5 0 7 -5 4 -10 -4 -6 -1 -17 5 -25 7 -8 9 -15 4 -15 -5 0 -4 -4 3
-8 7 -4 13 -24 15 -45 1 -22 7 -37 15 -37 8 0 13 -12 13 -31 0 -27 3 -30 22
-23 20 6 21 5 9 -10 -12 -14 -12 -16 3 -10 12 5 17 2 16 -7 -4 -27 0 -38 25
-63 13 -13 20 -26 14 -28 -6 -2 -4 -15 5 -33 9 -17 16 -26 16 -22 0 5 7 2 15
-7 8 -8 15 -19 15 -24 0 -5 7 -15 15 -22 8 -7 12 -16 10 -21 -3 -4 2 -12 10
-17 9 -4 17 -20 19 -35 1 -15 10 -35 20 -45 15 -17 15 -20 1 -32 -14 -12 -13
-15 7 -29 25 -17 39 -81 19 -81 -7 0 -9 -10 -5 -25 4 -15 1 -32 -6 -40 -10
-12 -9 -15 6 -15 13 0 15 -3 7 -11 -6 -6 -9 -18 -6 -25 3 -8 -3 -17 -13 -21
-17 -6 -17 -8 4 -13 29 -6 31 -22 3 -35 -14 -6 -19 -16 -15 -27 4 -14 0 -18
-18 -19 l-23 0 22 -11 c29 -14 35 -32 21 -66 l-11 -27 -10 35 c-5 19 -12 29
-15 21 -4 -11 -6 -11 -14 0 -7 11 -11 11 -15 2 -7 -18 -23 -16 -23 2 0 8 -4
15 -10 15 -5 0 -10 9 -10 21 0 11 -4 17 -10 14 -5 -3 -10 -2 -10 3 0 4 -13 23
-30 42 -16 18 -27 37 -24 41 3 5 -2 9 -10 9 -9 0 -15 3 -14 8 2 7 -24 66 -41
92 -17 26 -91 188 -91 200 0 6 -8 22 -17 37 -23 35 -63 134 -63 156 0 9 -4 17
-8 17 -5 0 -21 33 -36 73 -54 142 -118 285 -200 443 -14 29 -26 56 -26 62 0 5
-7 15 -15 22 -8 7 -15 23 -15 36 0 12 -5 26 -11 30 -6 3 -20 26 -31 50 -10 24
-23 44 -28 44 -6 0 -10 6 -10 14 0 7 -12 29 -27 49 -16 20 -49 69 -76 109 -26
40 -71 98 -100 129 -55 61 -260 229 -277 229 -5 0 -10 3 -10 8 0 4 -25 20 -55
36 -30 16 -55 32 -55 37 0 5 -7 6 -16 2 -9 -3 -20 0 -24 7 -4 7 -22 13 -39 14
-17 0 -31 4 -31 9 0 4 -6 7 -13 7 -8 0 -19 10 -25 23 -6 12 -11 17 -11 11 -1
-6 -14 -9 -30 -6 -20 3 -28 8 -24 18 3 9 -2 14 -16 14 -12 0 -21 6 -21 13 0 7
-14 24 -30 39 -19 17 -28 32 -24 42 3 9 1 16 -5 16 -5 0 -9 15 -7 34 2 26 -2
36 -16 39 -10 3 -18 12 -18 21 0 9 -6 16 -12 16 -10 0 -10 2 0 9 10 6 5 16
-20 41 -18 19 -27 31 -20 26 22 -14 34 5 14 23 -17 14 -18 19 -7 34 7 9 18 17
25 17 10 0 10 3 -1 16 -11 14 -10 15 7 12 11 -2 18 2 16 10 -1 6 2 12 8 12 16
0 60 42 54 51 -3 5 8 14 23 21 15 7 31 18 35 24 4 6 21 17 39 24 20 9 29 18
26 29 -3 14 2 16 30 13 21 -3 33 0 33 8 0 7 -7 10 -15 6 -17 -6 -21 9 -5 19 8
5 7 11 -1 21 -11 14 -10 15 14 18 6 1 12 13 11 27 -1 24 2 26 35 23 19 -1 30
0 25 4 -6 4 -13 18 -17 31 -4 18 -3 21 6 12 6 -6 17 -11 25 -11 11 0 12 3 3
14 -17 20 3 30 30 16 23 -13 69 -6 69 11 0 6 6 6 18 1 9 -5 23 -7 31 -4z
m1058 -440 c49 -29 93 -56 98 -60 31 -25 115 -86 146 -108 44 -30 150 -126
297 -270 107 -105 169 -173 279 -305 32 -38 61 -71 66 -73 4 -2 7 -10 7 -18 0
-9 4 -13 8 -10 5 3 17 -7 28 -22 10 -15 51 -60 90 -99 39 -40 70 -73 68 -73
-5 0 79 -74 149 -132 25 -21 49 -38 53 -38 4 0 15 -7 24 -15 15 -14 119 -71
188 -104 17 -8 32 -19 32 -23 0 -4 7 -8 16 -8 19 0 104 -49 104 -60 0 -31 -14
-40 -66 -40 -33 0 -54 -4 -54 -11 0 -8 -5 -8 -15 1 -12 10 -15 10 -15 0 0 -7
-7 -10 -16 -6 -8 3 -12 2 -9 -4 3 -6 0 -10 -9 -10 -8 0 -16 3 -18 8 -4 9 -85
62 -96 62 -4 0 -22 13 -40 30 -18 16 -53 43 -77 60 -25 17 -45 35 -45 40 0 5
-10 12 -21 15 -12 4 -35 21 -53 39 -17 17 -44 37 -59 44 -15 6 -33 17 -40 22
-29 25 -152 110 -160 110 -5 0 -23 11 -41 25 -18 14 -38 25 -44 25 -6 0 -12 4
-14 8 -1 4 -36 30 -75 56 -40 27 -73 53 -73 57 0 8 -49 44 -136 99 -17 11 -37
31 -44 45 -7 14 -19 25 -26 25 -17 0 -114 91 -114 108 0 9 -8 11 -22 8 -13 -3
-17 -3 -10 0 6 3 12 10 12 15 0 6 -4 7 -10 4 -5 -3 -10 3 -10 15 0 12 -4 19
-10 15 -5 -3 -7 -12 -4 -20 5 -12 1 -12 -25 1 -17 9 -31 22 -31 31 0 8 -9 17
-19 20 -24 6 -29 27 -20 71 7 34 -2 48 -27 38 -10 -4 -14 0 -12 12 2 9 -2 16
-9 15 -14 -3 -6 27 11 40 6 5 -2 6 -18 4 -34 -6 -58 1 -51 13 3 5 -9 11 -26
15 -19 4 -33 15 -36 26 -3 10 -10 16 -15 13 -6 -4 -15 0 -20 7 -10 14 -8 7 9
-41 5 -12 3 -13 -7 -3 -17 16 -41 -2 -33 -23 3 -8 0 -14 -6 -14 -6 0 -11 5
-11 10 0 6 -9 10 -21 10 -12 0 -19 5 -16 13 2 6 16 11 31 10 21 -1 26 3 26 22
0 32 -16 40 -24 13 -4 -17 -8 -20 -16 -12 -9 9 -8 17 1 33 11 16 11 23 1 33
-9 9 -12 7 -12 -9 0 -12 -5 -25 -11 -29 -6 -3 -9 -15 -6 -25 6 -21 -16 -49
-39 -49 -28 0 -55 38 -48 68 11 43 52 148 74 189 11 21 20 42 20 46 0 21 34
77 46 77 8 0 53 -24 101 -52z m-5676 -1807 c-17 -11 2 -51 24 -51 8 0 15 -7
15 -16 0 -8 5 -12 10 -9 6 3 10 -1 10 -9 0 -9 5 -16 11 -16 5 0 9 8 8 18 -1 9
-1 20 0 24 1 10 57 -45 64 -63 3 -8 6 -2 6 14 1 15 6 27 12 27 8 0 10 -12 6
-35 l-6 -36 19 23 c21 26 26 18 9 -15 -9 -19 -7 -18 10 3 11 14 21 30 21 36 0
7 8 14 18 16 15 4 18 0 17 -22 -1 -20 2 -27 12 -23 9 3 11 13 7 27 -5 17 -4
19 7 9 18 -18 32 -16 25 2 -3 9 -1 15 7 14 24 -3 38 1 33 10 -4 5 3 7 14 4 19
-5 19 -6 -3 -23 -18 -15 -19 -19 -7 -23 41 -14 59 -14 64 -1 3 8 11 14 17 14
7 0 21 7 31 17 24 21 35 9 18 -21 -7 -15 -9 -32 -5 -43 7 -15 9 -13 15 12 9
34 10 33 15 -14 1 -19 11 -40 20 -47 19 -14 12 -34 -12 -34 -9 0 -13 6 -9 15
3 10 -1 15 -13 15 -30 0 -33 -28 -6 -52 l25 -21 -30 -27 -30 -27 20 -21 c11
-12 20 -23 20 -25 0 -8 -50 5 -56 14 -3 5 -9 9 -15 9 -5 0 0 -9 11 -20 11 -11
20 -28 19 -37 0 -15 -2 -15 -7 -3 -4 8 -13 16 -21 18 -10 2 -12 -8 -10 -41 3
-34 1 -44 -11 -43 -9 1 -16 -9 -18 -24 -4 -26 -22 -53 -22 -32 0 7 -4 12 -10
12 -5 0 -10 -6 -10 -14 0 -8 -7 -17 -16 -20 -11 -4 -13 -12 -8 -28 6 -20 5
-21 -8 -10 -13 10 -17 10 -22 -3 -3 -8 -13 -15 -22 -15 -13 0 -14 -3 -4 -15
10 -12 10 -15 -2 -15 -9 0 -14 -9 -14 -22 1 -17 -4 -22 -16 -20 -16 3 -23 -9
-19 -32 1 -5 -5 -6 -14 -2 -9 3 -26 0 -37 -8 -13 -9 -15 -15 -7 -18 22 -7 -1
-28 -30 -28 -33 0 -49 -16 -46 -46 2 -24 -30 -50 -40 -34 -4 6 1 13 9 16 24 9
19 26 -4 19 -12 -4 -31 0 -45 9 -18 12 -30 13 -50 6 -32 -12 -35 -12 -34 -2 5
30 -3 36 -20 15 l-19 -23 -7 37 c-5 27 -9 33 -16 22 -6 -9 -7 -2 -4 21 3 19 3
29 -1 23 -8 -18 -24 -16 -24 2 0 8 -7 15 -15 15 -11 0 -13 7 -9 29 5 23 2 29
-15 34 -16 4 -21 13 -21 36 0 19 6 34 15 37 19 8 9 24 -15 24 -24 0 -34 15
-22 36 13 23 3 54 -14 47 -8 -3 -14 0 -14 7 0 8 9 11 24 8 23 -5 24 -2 24 41
-1 25 -3 37 -6 26 -9 -44 -22 -37 -21 11 0 27 3 44 5 37 6 -13 63 -7 79 8 6 6
-3 7 -24 3 -25 -5 -32 -4 -27 4 4 7 15 12 24 13 9 0 -3 8 -28 17 -41 15 -43
17 -18 20 19 2 25 8 21 18 -4 12 0 14 23 8 37 -9 30 -2 -30 30 -27 14 -42 26
-34 26 9 0 21 7 28 15 7 9 21 13 31 10 11 -4 19 -2 19 4 0 6 -4 11 -10 11 -5
0 -10 5 -10 11 0 7 9 9 21 6 16 -4 18 -3 9 8 -7 8 -8 20 -4 26 5 9 11 7 21 -6
12 -18 19 -10 14 18 0 4 4 7 9 7 5 0 10 8 10 19 0 15 7 18 40 15 28 -2 40 1
40 11 0 14 19 22 55 24 15 0 16 -2 6 -8z m916 -582 c-9 -38 -11 -40 -24 -24
-7 11 -13 14 -13 7 0 -16 44 -44 61 -37 17 6 41 -28 33 -48 -3 -8 -15 -12 -33
-9 -18 2 -30 -1 -33 -10 -4 -10 3 -14 25 -13 17 0 32 -6 35 -14 3 -10 -1 -12
-17 -8 -15 3 -24 -1 -32 -14 -11 -21 -3 -43 12 -33 12 7 73 -6 65 -14 -3 -3
-1 -11 4 -17 8 -9 6 -14 -5 -19 -22 -8 -18 -24 8 -28 18 -2 22 -9 22 -35 0
-20 5 -33 12 -33 7 0 13 6 13 13 0 8 4 7 10 -3 8 -13 10 -12 10 3 0 9 5 17 11
17 6 0 9 -9 6 -20 -3 -13 0 -20 9 -20 8 0 14 -7 14 -15 0 -8 4 -15 9 -15 11 0
25 -57 22 -87 -1 -13 3 -23 9 -23 7 0 9 -13 6 -32 -3 -18 -8 -112 -12 -208 -3
-96 -6 -180 -7 -187 0 -7 -4 -10 -9 -7 -7 5 -13 -47 -9 -87 1 -9 -5 -19 -14
-22 -8 -4 -15 -15 -15 -25 0 -21 -44 -85 -53 -76 -3 3 -11 3 -18 -2 -9 -5 -7
-10 7 -16 12 -5 8 -6 -14 -2 -27 5 -37 1 -57 -20 -28 -30 -35 -32 -35 -11 0
20 -16 19 -24 0 -4 -12 -10 -13 -24 -6 -13 7 -22 7 -30 -1 -5 -5 -16 -7 -22
-3 -8 5 -8 11 -2 17 11 11 5 38 -9 38 -4 0 -6 -7 -3 -15 4 -8 1 -15 -5 -15 -6
0 -10 -4 -8 -9 4 -15 -18 -11 -75 12 -15 6 -23 14 -18 17 15 10 -19 43 -45 43
-30 0 -33 13 -4 20 12 3 18 10 14 17 -5 8 -10 8 -20 0 -30 -25 -67 29 -46 69
7 12 6 22 -1 29 -13 13 -18 52 -7 52 4 0 9 -5 11 -12 3 -9 6 -9 12 1 5 8 1 14
-14 18 -17 5 -20 11 -15 32 4 14 10 27 15 29 5 2 7 9 5 15 -11 36 -13 77 -5
77 6 0 10 -8 10 -17 0 -24 10 -10 16 23 7 45 13 56 25 48 8 -4 9 -3 5 5 -6 9
-11 9 -21 1 -9 -8 -14 -7 -18 4 -4 9 2 17 14 21 20 7 27 25 8 25 -5 0 -8 4 -4
10 3 5 11 7 18 4 16 -6 62 32 48 40 -5 4 -12 2 -16 -4 -3 -5 -13 -10 -21 -10
-11 0 -12 4 -3 19 8 11 19 16 32 13 16 -4 18 -1 12 16 -10 34 -16 72 -11 72 3
0 12 -12 20 -27 l15 -28 1 28 c0 15 -5 27 -12 27 -6 0 -3 7 8 16 13 10 15 17
7 20 -7 3 -10 11 -7 19 3 7 1 16 -5 20 -19 11 -12 27 9 20 11 -3 20 -2 20 4 0
5 7 17 16 25 8 9 11 16 5 16 -5 0 -17 -7 -25 -16 -9 -8 -16 -14 -17 -12 -8 32
-8 59 1 53 5 -3 10 -2 10 4 0 5 -5 13 -10 16 -6 4 -8 11 -5 16 4 5 1 9 -4 9
-20 0 -11 17 14 28 35 16 63 15 81 -3 17 -17 34 -20 34 -6 0 5 -9 11 -19 14
-26 6 -22 58 5 68 16 6 14 8 -8 8 -16 1 -28 -3 -28 -9 0 -5 -7 -10 -16 -10
-14 0 -14 1 0 16 9 8 16 24 16 34 0 10 6 20 13 23 6 2 0 8 -15 12 -16 4 -28
12 -28 17 0 6 7 8 15 4 25 -9 45 4 45 30 0 13 2 24 4 24 17 0 36 -15 36 -27 0
-12 -3 -13 -14 -4 -11 9 -15 6 -19 -16 -3 -16 -9 -36 -12 -45 -5 -13 -2 -18
10 -18 11 0 15 5 12 15 -4 8 -2 17 4 20 5 4 6 11 3 17 -4 6 1 8 15 3 18 -5 21
-3 19 17 -3 25 -21 48 -37 48 -5 0 -13 5 -17 11 -4 7 0 9 14 5 14 -5 24 -1 31
11 6 10 11 12 11 6 0 -7 5 -13 11 -13 7 0 9 10 7 25 -3 16 -1 25 7 25 10 0 11
-9 2 -41z"/>
<path d="M6939 5935 c-6 -5 -81 -14 -126 -15 -46 0 -76 -21 -66 -48 8 -21 62
-93 83 -109 16 -12 104 -35 204 -52 68 -12 83 -22 89 -59 l4 -27 2 27 c1 31
30 45 59 29 11 -6 22 -8 25 -4 4 3 13 0 22 -7 8 -7 21 -10 30 -7 8 4 17 2 20
-2 2 -5 31 -12 62 -16 32 -4 63 -10 68 -15 6 -4 24 -11 42 -15 18 -3 49 -15
70 -25 59 -28 106 -38 132 -28 23 8 24 9 5 31 -11 12 -25 26 -31 30 -7 4 -13
16 -13 25 0 14 -2 14 -9 3 -7 -11 -10 -10 -15 5 -4 11 -36 41 -71 68 -36 27
-65 53 -65 58 0 5 -4 7 -9 4 -4 -3 -26 8 -47 24 -21 16 -47 30 -56 30 -10 0
-18 4 -18 9 0 5 -8 11 -17 14 -10 3 -49 17 -86 31 -87 31 -271 58 -288 41z"/>
<path d="M1415 5005 c-211 -25 -387 -69 -610 -152 -82 -31 -175 -67 -205 -80
-156 -69 -200 -87 -205 -81 -3 3 16 15 42 28 27 13 55 30 63 37 13 10 115 63
170 87 8 4 33 18 55 31 37 23 38 25 15 26 -14 1 -29 0 -35 -1 -5 -1 -39 -9
-75 -17 -36 -9 -67 -19 -70 -23 -3 -5 -23 -11 -45 -16 -22 -4 -63 -17 -92 -30
-28 -13 -58 -24 -67 -24 -8 0 -17 -4 -20 -9 -3 -5 -18 -12 -33 -16 -15 -3 -45
-15 -67 -26 -22 -10 -44 -19 -48 -19 -5 0 -43 -16 -84 -35 -41 -19 -81 -35
-89 -35 -13 0 -15 -153 -15 -1245 0 -823 3 -1245 10 -1245 6 0 10 5 10 11 0 5
12 25 27 44 19 24 30 31 36 22 4 -7 5 6 2 28 -4 22 -3 35 2 28 6 -8 13 -8 26
2 14 10 15 14 5 18 -9 4 -8 6 3 6 9 1 20 8 23 17 3 8 10 13 15 10 5 -4 12 7
16 23 3 16 15 37 26 47 19 17 19 19 2 25 -16 7 -16 8 -1 8 11 1 15 6 12 16 -4
9 0 15 9 15 16 0 31 55 20 73 -3 5 -1 7 4 4 6 -4 22 2 34 14 17 14 20 22 11
25 -17 8 -5 24 13 17 11 -4 15 2 15 21 0 17 4 24 13 20 8 -3 20 2 27 11 7 8
10 15 6 15 -3 0 3 9 14 20 11 11 24 20 30 20 5 0 14 9 20 20 6 11 18 20 26 20
8 0 13 4 9 9 -6 10 43 61 58 61 4 0 5 5 2 10 -3 6 6 15 21 20 15 6 50 34 78
63 29 29 68 63 89 77 20 14 40 33 43 42 3 10 11 15 20 11 8 -3 14 1 14 10 0 8
9 17 20 20 11 3 20 13 20 22 0 9 5 13 11 10 5 -4 21 5 34 19 13 14 27 26 31
26 3 0 19 12 34 28 54 51 71 63 82 56 8 -5 9 -2 5 9 -4 11 -1 17 8 17 8 0 24
9 35 20 11 11 27 20 35 20 8 0 15 5 15 10 0 6 6 10 13 10 8 0 22 9 32 20 10
11 27 22 39 26 11 4 31 18 44 31 12 13 27 21 32 18 6 -3 10 -2 10 3 0 9 109
86 122 87 4 0 14 10 23 21 8 12 30 25 50 28 35 7 46 20 23 29 -7 3 -1 6 14 6
17 1 29 8 33 20 3 11 12 18 20 15 7 -3 16 -1 20 5 3 6 14 11 24 11 21 0 87 57
83 72 -2 6 4 8 13 4 20 -7 75 29 75 49 0 8 12 22 26 31 16 11 24 24 21 35 -3
12 2 20 14 24 50 16 63 123 39 321 -11 85 -7 582 5 714 8 87 2 98 -61 105
-105 12 -319 12 -419 0z"/>
</g>
</svg>
